STARTFONT 2.1
FONT -sni-97480m1-Medium-OT-Normal--13-130-75-75-C-60--
SIZE 13 75 75
FONTBOUNDINGBOX 6 13 0 -3

STARTPROPERTIES 23
FONTNAME_REGISTRY ""
FAMILY_NAME "97480m1"
FOUNDRY "sni"
WEIGHT_NAME "Medium"
SLANT "OT"
SETWIDTH_NAME "Normal"
ADD_STYLE_NAME ""
PIXEL_SIZE 13
POINT_SIZE 130
RESOLUTION_X 75
RESOLUTION_Y 75
SPACING "C"
AVERAGE_WIDTH 60
CHARSET_REGISTRY ""
CHARSET_ENCODING ""
FACE_NAME "97801-480 M1"
COPYRIGHT "Copyright (C) Siemens Nixdorf Informationssysteme AG 1992, All Rights Reserved"
X_HEIGHT 4
WEIGHT 10
QUAD_WIDTH 6
DEFAULT_CHAR 0
FONT_DESCENT 3
FONT_ASCENT 10
ENDPROPERTIES

CHARS 256

STARTCHAR C032=0x020
ENCODING 0
SWIDTH 461 0
DWIDTH 6 0
BBX 6 13 0 -3
BITMAP
00
00
00
00
00
00
00
00
00
00
00
00
00
ENDCHAR

STARTCHAR C129=0x081
ENCODING 1
SWIDTH 461 0
DWIDTH 6 0
BBX 6 13 0 -3
BITMAP
00
00
70
88
D8
88
A8
A8
88
70
00
00
00
ENDCHAR

STARTCHAR C130=0x082
ENCODING 2
SWIDTH 461 0
DWIDTH 6 0
BBX 6 13 0 -3
BITMAP
00
00
70
F8
A8
F8
F8
88
F8
70
00
00
00
ENDCHAR

STARTCHAR C131=0x083
ENCODING 3
SWIDTH 461 0
DWIDTH 6 0
BBX 6 13 0 -3
BITMAP
00
00
00
50
F8
F8
70
20
20
00
00
00
00
ENDCHAR

STARTCHAR C132=0x084
ENCODING 4
SWIDTH 461 0
DWIDTH 6 0
BBX 6 13 0 -3
BITMAP
00
00
00
20
70
F8
F8
70
20
00
00
00
00
ENDCHAR

STARTCHAR C133=0x085
ENCODING 5
SWIDTH 461 0
DWIDTH 6 0
BBX 6 13 0 -3
BITMAP
00
00
20
20
70
D8
D8
70
20
20
70
00
00
ENDCHAR

STARTCHAR C134=0x086
ENCODING 6
SWIDTH 461 0
DWIDTH 6 0
BBX 6 13 0 -3
BITMAP
00
00
20
20
70
F8
F8
70
20
20
70
00
00
ENDCHAR

STARTCHAR C135=0x087
ENCODING 7
SWIDTH 461 0
DWIDTH 6 0
BBX 6 13 0 -3
BITMAP
00
00
00
00
70
70
70
70
00
00
00
00
00
ENDCHAR

STARTCHAR C136=0x088
ENCODING 8
SWIDTH 461 0
DWIDTH 6 0
BBX 6 13 0 -3
BITMAP
04
04
FC
FC
8C
8C
8C
8C
FC
FC
00
04
04
ENDCHAR

STARTCHAR C137=0x089
ENCODING 9
SWIDTH 461 0
DWIDTH 6 0
BBX 6 13 0 -3
BITMAP
00
00
00
00
60
90
90
90
60
00
00
00
00
ENDCHAR

STARTCHAR C138=0x08a
ENCODING 10
SWIDTH 461 0
DWIDTH 6 0
BBX 6 13 0 -3
BITMAP
00
00
FC
FC
9C
6C
6C
6C
9C
FC
FC
04
04
ENDCHAR

STARTCHAR C139=0x08b
ENCODING 11
SWIDTH 461 0
DWIDTH 6 0
BBX 6 13 0 -3
BITMAP
00
00
38
18
28
60
90
90
90
60
00
00
00
ENDCHAR

STARTCHAR C140=0x08c
ENCODING 12
SWIDTH 461 0
DWIDTH 6 0
BBX 6 13 0 -3
BITMAP
00
00
70
88
88
88
70
20
20
F8
20
00
00
ENDCHAR

STARTCHAR C141=0x08d
ENCODING 13
SWIDTH 461 0
DWIDTH 6 0
BBX 6 13 0 -3
BITMAP
00
00
20
30
28
20
20
20
E0
E0
E0
00
00
ENDCHAR

STARTCHAR C142=0x08e
ENCODING 14
SWIDTH 461 0
DWIDTH 6 0
BBX 6 13 0 -3
BITMAP
00
00
40
60
50
68
D8
C8
08
18
18
00
00
ENDCHAR

STARTCHAR C143=0x08f
ENCODING 15
SWIDTH 461 0
DWIDTH 6 0
BBX 6 13 0 -3
BITMAP
00
00
00
20
A8
70
D8
70
A8
20
00
00
00
ENDCHAR

STARTCHAR C144=0x090
ENCODING 16
SWIDTH 461 0
DWIDTH 6 0
BBX 6 13 0 -3
BITMAP
00
00
00
00
C0
F0
F8
F0
C0
00
00
00
00
ENDCHAR

STARTCHAR C145=0x091
ENCODING 17
SWIDTH 461 0
DWIDTH 6 0
BBX 6 13 0 -3
BITMAP
00
00
00
00
18
78
F8
78
18
00
00
00
00
ENDCHAR

STARTCHAR C146=0x092
ENCODING 18
SWIDTH 461 0
DWIDTH 6 0
BBX 6 13 0 -3
BITMAP
00
00
20
70
F8
20
20
F8
70
20
00
00
00
ENDCHAR

STARTCHAR C147=0x093
ENCODING 19
SWIDTH 461 0
DWIDTH 6 0
BBX 6 13 0 -3
BITMAP
00
00
48
48
48
48
48
48
48
00
48
00
00
ENDCHAR

STARTCHAR C148=0x094
ENCODING 20
SWIDTH 461 0
DWIDTH 6 0
BBX 6 13 0 -3
BITMAP
00
00
78
A8
A8
A8
68
28
28
28
28
00
00
ENDCHAR

STARTCHAR C149=0x095
ENCODING 21
SWIDTH 461 0
DWIDTH 6 0
BBX 6 13 0 -3
BITMAP
00
00
00
18
28
48
88
48
28
18
00
00
00
ENDCHAR

STARTCHAR C150=0x096
ENCODING 22
SWIDTH 461 0
DWIDTH 6 0
BBX 6 13 0 -3
BITMAP
00
00
00
00
00
00
00
00
00
F8
F8
00
00
ENDCHAR

STARTCHAR C151=0x097
ENCODING 23
SWIDTH 461 0
DWIDTH 6 0
BBX 6 13 0 -3
BITMAP
00
00
20
70
F8
20
20
F8
70
20
00
F8
F8
ENDCHAR

STARTCHAR C152=0x098
ENCODING 24
SWIDTH 461 0
DWIDTH 6 0
BBX 6 13 0 -3
BITMAP
00
00
20
70
F8
20
20
20
20
20
20
00
00
ENDCHAR

STARTCHAR C153=0x099
ENCODING 25
SWIDTH 461 0
DWIDTH 6 0
BBX 6 13 0 -3
BITMAP
00
00
20
20
20
20
20
20
F8
70
20
00
00
ENDCHAR

STARTCHAR C154=0x09a
ENCODING 26
SWIDTH 461 0
DWIDTH 6 0
BBX 6 13 0 -3
BITMAP
00
00
00
00
00
20
10
F8
10
20
00
00
00
ENDCHAR

STARTCHAR C155=0x09b
ENCODING 27
SWIDTH 461 0
DWIDTH 6 0
BBX 6 13 0 -3
BITMAP
00
00
00
00
00
20
40
F8
40
20
00
00
00
ENDCHAR

STARTCHAR C156=0x09c
ENCODING 28
SWIDTH 461 0
DWIDTH 6 0
BBX 6 13 0 -3
BITMAP
00
00
00
00
80
80
F8
00
00
00
00
00
00
ENDCHAR

STARTCHAR C157=0x09d
ENCODING 29
SWIDTH 461 0
DWIDTH 6 0
BBX 6 13 0 -3
BITMAP
00
00
00
00
00
50
F8
50
00
00
00
00
00
ENDCHAR

STARTCHAR C158=0x09e
ENCODING 30
SWIDTH 461 0
DWIDTH 6 0
BBX 6 13 0 -3
BITMAP
00
00
00
00
00
20
70
F8
00
00
00
00
00
ENDCHAR

STARTCHAR C159=0x09f
ENCODING 31
SWIDTH 461 0
DWIDTH 6 0
BBX 6 13 0 -3
BITMAP
00
00
00
00
00
F8
70
20
00
00
00
00
00
ENDCHAR

STARTCHAR C032=0x020
ENCODING 32
SWIDTH 461 0
DWIDTH 6 0
BBX 6 13 0 -3
BITMAP
00
00
00
00
00
00
00
00
00
00
00
00
00
ENDCHAR

STARTCHAR C464=0x1d0
ENCODING 33
SWIDTH 461 0
DWIDTH 6 0
BBX 6 13 0 -3
BITMAP
1C
1C
1C
1C
1C
1C
1C
1C
1C
1C
1C
1C
1C
ENDCHAR

STARTCHAR C465=0x1d1
ENCODING 34
SWIDTH 461 0
DWIDTH 6 0
BBX 6 13 0 -3
BITMAP
E0
E0
E0
E0
E0
E0
E0
E0
E0
E0
E0
E0
E0
ENDCHAR

STARTCHAR C466=0x1d2
ENCODING 35
SWIDTH 461 0
DWIDTH 6 0
BBX 6 13 0 -3
BITMAP
00
00
00
00
00
00
FC
FC
FC
FC
FC
FC
FC
ENDCHAR

STARTCHAR C467=0x1d3
ENCODING 36
SWIDTH 461 0
DWIDTH 6 0
BBX 6 13 0 -3
BITMAP
FC
FC
FC
FC
FC
FC
00
00
00
00
00
00
00
ENDCHAR

STARTCHAR C468=0x1d4
ENCODING 37
SWIDTH 461 0
DWIDTH 6 0
BBX 6 13 0 -3
BITMAP
3C
3C
3C
3C
3C
3C
3C
3C
3C
3C
3C
3C
3C
ENDCHAR

STARTCHAR C469=0x1d5
ENCODING 38
SWIDTH 461 0
DWIDTH 6 0
BBX 6 13 0 -3
BITMAP
F0
F0
F0
F0
F0
F0
F0
F0
F0
F0
F0
F0
F0
ENDCHAR

STARTCHAR C470=0x1d6
ENCODING 39
SWIDTH 461 0
DWIDTH 6 0
BBX 6 13 0 -3
BITMAP
00
00
00
00
00
FC
FC
FC
FC
FC
FC
FC
FC
ENDCHAR

STARTCHAR C471=0x1d7
ENCODING 40
SWIDTH 461 0
DWIDTH 6 0
BBX 6 13 0 -3
BITMAP
FC
FC
FC
FC
FC
FC
FC
FC
FC
00
00
00
00
ENDCHAR

STARTCHAR C472=0x1d8
ENCODING 41
SWIDTH 461 0
DWIDTH 6 0
BBX 6 13 0 -3
BITMAP
00
00
0C
1C
30
60
C0
60
30
1C
0C
00
00
ENDCHAR

STARTCHAR C473=0x1d9
ENCODING 42
SWIDTH 461 0
DWIDTH 6 0
BBX 6 13 0 -3
BITMAP
00
00
FC
04
8C
54
24
54
8C
04
FC
00
00
ENDCHAR

STARTCHAR C474=0x1da
ENCODING 43
SWIDTH 461 0
DWIDTH 6 0
BBX 6 13 0 -3
BITMAP
FC
FC
CC
CC
CC
CC
CC
CC
CC
CC
CC
FC
FC
ENDCHAR

STARTCHAR C000=0x000
ENCODING 44
SWIDTH 461 0
DWIDTH 6 0
BBX 6 13 0 -3
BITMAP
00
00
00
00
00
00
30
30
00
00
00
00
00
ENDCHAR

STARTCHAR C128=0x080
ENCODING 45
SWIDTH 461 0
DWIDTH 6 0
BBX 6 13 0 -3
BITMAP
00
00
00
00
40
60
50
48
50
60
40
00
00
ENDCHAR

STARTCHAR C149=0x095
ENCODING 46
SWIDTH 461 0
DWIDTH 6 0
BBX 6 13 0 -3
BITMAP
00
00
00
18
28
48
88
48
28
18
00
00
00
ENDCHAR

STARTCHAR C160=0x0a0
ENCODING 47
SWIDTH 461 0
DWIDTH 6 0
BBX 6 13 0 -3
BITMAP
00
00
00
00
10
20
40
20
10
00
00
00
00
ENDCHAR

STARTCHAR C384=0x180
ENCODING 48
SWIDTH 461 0
DWIDTH 6 0
BBX 6 13 0 -3
BITMAP
30
30
30
30
30
FC
FC
FC
FC
00
00
00
00
ENDCHAR

STARTCHAR C385=0x181
ENCODING 49
SWIDTH 461 0
DWIDTH 6 0
BBX 6 13 0 -3
BITMAP
00
00
00
00
00
FC
FC
FC
FC
30
30
30
30
ENDCHAR

STARTCHAR C386=0x182
ENCODING 50
SWIDTH 461 0
DWIDTH 6 0
BBX 6 13 0 -3
BITMAP
30
30
30
30
30
3C
3C
3C
3C
30
30
30
30
ENDCHAR

STARTCHAR C387=0x183
ENCODING 51
SWIDTH 461 0
DWIDTH 6 0
BBX 6 13 0 -3
BITMAP
30
30
30
30
30
F0
F0
F0
F0
30
30
30
30
ENDCHAR

STARTCHAR C388=0x184
ENCODING 52
SWIDTH 461 0
DWIDTH 6 0
BBX 6 13 0 -3
BITMAP
30
30
60
60
60
C0
C0
C0
60
60
60
30
30
ENDCHAR

STARTCHAR C389=0x185
ENCODING 53
SWIDTH 461 0
DWIDTH 6 0
BBX 6 13 0 -3
BITMAP
30
30
18
18
18
0C
0C
0C
18
18
18
30
30
ENDCHAR

STARTCHAR C390=0x186
ENCODING 54
SWIDTH 461 0
DWIDTH 6 0
BBX 6 13 0 -3
BITMAP
00
00
00
00
00
00
CC
CC
CC
48
48
30
30
ENDCHAR

STARTCHAR C391=0x187
ENCODING 55
SWIDTH 461 0
DWIDTH 6 0
BBX 6 13 0 -3
BITMAP
30
30
48
48
CC
CC
00
00
00
00
00
00
00
ENDCHAR

STARTCHAR C392=0x188
ENCODING 56
SWIDTH 461 0
DWIDTH 6 0
BBX 6 13 0 -3
BITMAP
30
30
60
60
C0
C0
00
00
00
00
00
00
00
ENDCHAR

STARTCHAR C393=0x189
ENCODING 57
SWIDTH 461 0
DWIDTH 6 0
BBX 6 13 0 -3
BITMAP
30
30
18
18
0C
0C
00
00
00
00
00
00
00
ENDCHAR

STARTCHAR C394=0x18a
ENCODING 58
SWIDTH 461 0
DWIDTH 6 0
BBX 6 13 0 -3
BITMAP
00
00
00
00
00
00
C0
C0
60
60
60
30
30
ENDCHAR

STARTCHAR C395=0x18b
ENCODING 59
SWIDTH 461 0
DWIDTH 6 0
BBX 6 13 0 -3
BITMAP
00
00
00
00
00
00
0C
0C
18
18
18
30
30
ENDCHAR

STARTCHAR C396=0x18c
ENCODING 60
SWIDTH 461 0
DWIDTH 6 0
BBX 6 13 0 -3
BITMAP
30
30
30
30
30
FC
FC
FC
FC
30
30
30
30
ENDCHAR

STARTCHAR C397=0x18d
ENCODING 61
SWIDTH 461 0
DWIDTH 6 0
BBX 6 13 0 -3
BITMAP
00
00
F8
88
F8
70
20
20
50
88
88
F8
00
ENDCHAR

STARTCHAR C398=0x18e
ENCODING 62
SWIDTH 461 0
DWIDTH 6 0
BBX 6 13 0 -3
BITMAP
00
00
00
00
00
20
70
F8
F8
70
20
00
00
ENDCHAR

STARTCHAR C399=0x18f
ENCODING 63
SWIDTH 461 0
DWIDTH 6 0
BBX 6 13 0 -3
BITMAP
00
00
00
00
00
20
50
88
88
50
20
00
00
ENDCHAR

STARTCHAR C400=0x190
ENCODING 64
SWIDTH 461 0
DWIDTH 6 0
BBX 6 13 0 -3
BITMAP
30
30
30
30
30
30
30
30
30
30
30
30
30
ENDCHAR

STARTCHAR C401=0x191
ENCODING 65
SWIDTH 461 0
DWIDTH 6 0
BBX 6 13 0 -3
BITMAP
00
00
00
00
00
00
FC
FC
00
00
00
00
00
ENDCHAR

STARTCHAR C402=0x192
ENCODING 66
SWIDTH 461 0
DWIDTH 6 0
BBX 6 13 0 -3
BITMAP
00
00
00
00
00
00
3C
3C
30
30
30
30
30
ENDCHAR

STARTCHAR C403=0x193
ENCODING 67
SWIDTH 461 0
DWIDTH 6 0
BBX 6 13 0 -3
BITMAP
00
00
00
00
00
00
F0
F0
30
30
30
30
30
ENDCHAR

STARTCHAR C404=0x194
ENCODING 68
SWIDTH 461 0
DWIDTH 6 0
BBX 6 13 0 -3
BITMAP
30
30
30
30
30
30
3C
3C
00
00
00
00
00
ENDCHAR

STARTCHAR C405=0x195
ENCODING 69
SWIDTH 461 0
DWIDTH 6 0
BBX 6 13 0 -3
BITMAP
30
30
30
30
30
30
F0
F0
00
00
00
00
00
ENDCHAR

STARTCHAR C406=0x196
ENCODING 70
SWIDTH 461 0
DWIDTH 6 0
BBX 6 13 0 -3
BITMAP
30
30
30
30
30
30
3C
3C
30
30
30
30
30
ENDCHAR

STARTCHAR C407=0x197
ENCODING 71
SWIDTH 461 0
DWIDTH 6 0
BBX 6 13 0 -3
BITMAP
30
30
30
30
30
30
F0
F0
30
30
30
30
30
ENDCHAR

STARTCHAR C408=0x198
ENCODING 72
SWIDTH 461 0
DWIDTH 6 0
BBX 6 13 0 -3
BITMAP
00
00
00
00
00
00
FC
FC
30
30
30
30
30
ENDCHAR

STARTCHAR C409=0x199
ENCODING 73
SWIDTH 461 0
DWIDTH 6 0
BBX 6 13 0 -3
BITMAP
30
30
30
30
30
30
FC
FC
00
00
00
00
00
ENDCHAR

STARTCHAR C410=0x19a
ENCODING 74
SWIDTH 461 0
DWIDTH 6 0
BBX 6 13 0 -3
BITMAP
30
30
30
30
30
30
FC
FC
30
30
30
30
30
ENDCHAR

STARTCHAR C411=0x19b
ENCODING 75
SWIDTH 461 0
DWIDTH 6 0
BBX 6 13 0 -3
BITMAP
00
00
00
00
10
18
FC
FC
18
10
00
00
00
ENDCHAR

STARTCHAR C412=0x19c
ENCODING 76
SWIDTH 461 0
DWIDTH 6 0
BBX 6 13 0 -3
BITMAP
00
00
00
00
20
60
FC
FC
60
20
00
00
00
ENDCHAR

STARTCHAR C413=0x19d
ENCODING 77
SWIDTH 461 0
DWIDTH 6 0
BBX 6 13 0 -3
BITMAP
30
78
FC
30
30
30
30
30
30
30
30
30
30
ENDCHAR

STARTCHAR C414=0x19e
ENCODING 78
SWIDTH 461 0
DWIDTH 6 0
BBX 6 13 0 -3
BITMAP
30
30
30
30
30
30
30
30
30
30
FC
78
30
ENDCHAR

STARTCHAR C415=0x19f
ENCODING 79
SWIDTH 461 0
DWIDTH 6 0
BBX 6 13 0 -3
BITMAP
30
30
30
30
30
30
30
30
00
00
00
00
00
ENDCHAR

STARTCHAR C416=0x1a0
ENCODING 80
SWIDTH 461 0
DWIDTH 6 0
BBX 6 13 0 -3
BITMAP
00
00
00
00
00
00
30
30
30
30
30
30
30
ENDCHAR

STARTCHAR C417=0x1a1
ENCODING 81
SWIDTH 461 0
DWIDTH 6 0
BBX 6 13 0 -3
BITMAP
00
00
00
00
00
30
68
A4
BC
48
30
00
00
ENDCHAR

STARTCHAR C418=0x1a2
ENCODING 82
SWIDTH 461 0
DWIDTH 6 0
BBX 6 13 0 -3
BITMAP
00
00
00
00
00
00
0C
1C
38
30
30
30
30
ENDCHAR

STARTCHAR C419=0x1a3
ENCODING 83
SWIDTH 461 0
DWIDTH 6 0
BBX 6 13 0 -3
BITMAP
00
00
00
00
00
00
C0
E0
70
30
30
30
30
ENDCHAR

STARTCHAR C420=0x1a4
ENCODING 84
SWIDTH 461 0
DWIDTH 6 0
BBX 6 13 0 -3
BITMAP
30
30
30
30
30
38
1C
0C
00
00
00
00
00
ENDCHAR

STARTCHAR C421=0x1a5
ENCODING 85
SWIDTH 461 0
DWIDTH 6 0
BBX 6 13 0 -3
BITMAP
30
30
30
30
30
70
E0
C0
00
00
00
00
00
ENDCHAR

STARTCHAR C422=0x1a6
ENCODING 86
SWIDTH 461 0
DWIDTH 6 0
BBX 6 13 0 -3
BITMAP
30
30
30
30
30
18
0C
0C
18
30
30
30
30
ENDCHAR

STARTCHAR C423=0x1a7
ENCODING 87
SWIDTH 461 0
DWIDTH 6 0
BBX 6 13 0 -3
BITMAP
30
30
30
30
30
60
C0
C0
60
30
30
30
30
ENDCHAR

STARTCHAR C424=0x1a8
ENCODING 88
SWIDTH 461 0
DWIDTH 6 0
BBX 6 13 0 -3
BITMAP
00
00
00
00
00
00
CC
CC
78
30
30
00
00
ENDCHAR

STARTCHAR C425=0x1a9
ENCODING 89
SWIDTH 461 0
DWIDTH 6 0
BBX 6 13 0 -3
BITMAP
00
00
30
30
78
48
CC
CC
00
00
00
00
00
ENDCHAR

STARTCHAR C426=0x1aa
ENCODING 90
SWIDTH 461 0
DWIDTH 6 0
BBX 6 13 0 -3
BITMAP
30
30
30
30
30
30
FC
FC
30
30
30
30
30
ENDCHAR

STARTCHAR C427=0x1ab
ENCODING 91
SWIDTH 461 0
DWIDTH 6 0
BBX 6 13 0 -3
BITMAP
00
00
00
00
30
30
FC
FC
30
30
00
00
00
ENDCHAR

STARTCHAR C428=0x1ac
ENCODING 92
SWIDTH 461 0
DWIDTH 6 0
BBX 6 13 0 -3
BITMAP
00
00
00
FC
FC
00
00
FC
FC
00
00
FC
FC
ENDCHAR

STARTCHAR C429=0x1ad
ENCODING 93
SWIDTH 461 0
DWIDTH 6 0
BBX 6 13 0 -3
BITMAP
00
00
00
CC
CC
00
00
CC
CC
00
00
CC
CC
ENDCHAR

STARTCHAR C430=0x1ae
ENCODING 94
SWIDTH 461 0
DWIDTH 6 0
BBX 6 13 0 -3
BITMAP
A8
54
A8
54
A8
54
A8
54
A8
54
A8
54
A8
ENDCHAR

STARTCHAR C431=0x1af
ENCODING 95
SWIDTH 461 0
DWIDTH 6 0
BBX 6 13 0 -3
BITMAP
54
54
54
54
54
54
54
54
54
54
54
54
54
ENDCHAR

STARTCHAR C432=0x1b0
ENCODING 96
SWIDTH 461 0
DWIDTH 6 0
BBX 6 13 0 -3
BITMAP
30
30
30
30
30
30
30
30
30
30
30
30
30
ENDCHAR

STARTCHAR C433=0x1b1
ENCODING 97
SWIDTH 461 0
DWIDTH 6 0
BBX 6 13 0 -3
BITMAP
00
00
00
00
00
00
FC
FC
00
00
00
00
00
ENDCHAR

STARTCHAR C434=0x1b2
ENCODING 98
SWIDTH 461 0
DWIDTH 6 0
BBX 6 13 0 -3
BITMAP
00
00
00
00
00
00
3C
3C
30
30
30
30
30
ENDCHAR

STARTCHAR C435=0x1b3
ENCODING 99
SWIDTH 461 0
DWIDTH 6 0
BBX 6 13 0 -3
BITMAP
00
00
00
00
00
00
F0
F0
30
30
30
30
30
ENDCHAR

STARTCHAR C436=0x1b4
ENCODING 100
SWIDTH 461 0
DWIDTH 6 0
BBX 6 13 0 -3
BITMAP
30
30
30
30
30
30
3C
3C
00
00
00
00
00
ENDCHAR

STARTCHAR C437=0x1b5
ENCODING 101
SWIDTH 461 0
DWIDTH 6 0
BBX 6 13 0 -3
BITMAP
30
30
30
30
30
30
F0
F0
00
00
00
00
00
ENDCHAR

STARTCHAR C438=0x1b6
ENCODING 102
SWIDTH 461 0
DWIDTH 6 0
BBX 6 13 0 -3
BITMAP
30
30
30
30
30
30
3C
3C
30
30
30
30
30
ENDCHAR

STARTCHAR C439=0x1b7
ENCODING 103
SWIDTH 461 0
DWIDTH 6 0
BBX 6 13 0 -3
BITMAP
30
30
30
30
30
30
F0
F0
30
30
30
30
30
ENDCHAR

STARTCHAR C440=0x1b8
ENCODING 104
SWIDTH 461 0
DWIDTH 6 0
BBX 6 13 0 -3
BITMAP
00
00
00
00
00
00
FC
FC
30
30
30
30
30
ENDCHAR

STARTCHAR C441=0x1b9
ENCODING 105
SWIDTH 461 0
DWIDTH 6 0
BBX 6 13 0 -3
BITMAP
30
30
30
30
30
30
FC
FC
00
00
00
00
00
ENDCHAR

STARTCHAR C442=0x1ba
ENCODING 106
SWIDTH 461 0
DWIDTH 6 0
BBX 6 13 0 -3
BITMAP
30
30
30
30
30
30
FC
FC
30
30
30
30
30
ENDCHAR

STARTCHAR C443=0x1bb
ENCODING 107
SWIDTH 461 0
DWIDTH 6 0
BBX 6 13 0 -3
BITMAP
00
00
00
00
10
18
FC
FC
18
10
00
00
00
ENDCHAR

STARTCHAR C444=0x1bc
ENCODING 108
SWIDTH 461 0
DWIDTH 6 0
BBX 6 13 0 -3
BITMAP
00
00
00
00
20
60
FC
FC
60
20
00
00
00
ENDCHAR

STARTCHAR C445=0x1bd
ENCODING 109
SWIDTH 461 0
DWIDTH 6 0
BBX 6 13 0 -3
BITMAP
30
78
FC
30
30
30
30
30
30
30
30
30
30
ENDCHAR

STARTCHAR C446=0x1be
ENCODING 110
SWIDTH 461 0
DWIDTH 6 0
BBX 6 13 0 -3
BITMAP
30
30
30
30
30
30
30
30
30
30
FC
78
30
ENDCHAR

STARTCHAR C447=0x1bf
ENCODING 111
SWIDTH 461 0
DWIDTH 6 0
BBX 6 13 0 -3
BITMAP
30
30
30
30
30
30
30
30
00
00
00
00
00
ENDCHAR

STARTCHAR C448=0x1c0
ENCODING 112
SWIDTH 461 0
DWIDTH 6 0
BBX 6 13 0 -3
BITMAP
00
00
00
00
00
00
30
30
30
30
30
30
30
ENDCHAR

STARTCHAR C449=0x1c1
ENCODING 113
SWIDTH 461 0
DWIDTH 6 0
BBX 6 13 0 -3
BITMAP
00
00
00
F0
00
F0
00
F0
00
00
00
00
00
ENDCHAR

STARTCHAR C450=0x1c2
ENCODING 114
SWIDTH 461 0
DWIDTH 6 0
BBX 6 13 0 -3
BITMAP
00
00
00
00
00
00
0C
1C
38
30
30
30
30
ENDCHAR

STARTCHAR C451=0x1c3
ENCODING 115
SWIDTH 461 0
DWIDTH 6 0
BBX 6 13 0 -3
BITMAP
00
00
00
00
00
00
C0
E0
70
30
30
30
30
ENDCHAR

STARTCHAR C452=0x1c4
ENCODING 116
SWIDTH 461 0
DWIDTH 6 0
BBX 6 13 0 -3
BITMAP
30
30
30
30
30
38
1C
0C
00
00
00
00
00
ENDCHAR

STARTCHAR C453=0x1c5
ENCODING 117
SWIDTH 461 0
DWIDTH 6 0
BBX 6 13 0 -3
BITMAP
30
30
30
30
30
70
E0
C0
00
00
00
00
00
ENDCHAR

STARTCHAR C454=0x1c6
ENCODING 118
SWIDTH 461 0
DWIDTH 6 0
BBX 6 13 0 -3
BITMAP
30
30
30
30
30
18
0C
0C
18
30
30
30
30
ENDCHAR

STARTCHAR C455=0x1c7
ENCODING 119
SWIDTH 461 0
DWIDTH 6 0
BBX 6 13 0 -3
BITMAP
30
30
30
30
30
60
C0
C0
60
30
30
30
30
ENDCHAR

STARTCHAR C456=0x1c8
ENCODING 120
SWIDTH 461 0
DWIDTH 6 0
BBX 6 13 0 -3
BITMAP
00
00
00
00
00
00
CC
CC
78
30
30
00
00
ENDCHAR

STARTCHAR C457=0x1c9
ENCODING 121
SWIDTH 461 0
DWIDTH 6 0
BBX 6 13 0 -3
BITMAP
00
00
30
30
78
48
CC
CC
00
00
00
00
00
ENDCHAR

STARTCHAR C458=0x1ca
ENCODING 122
SWIDTH 461 0
DWIDTH 6 0
BBX 6 13 0 -3
BITMAP
30
30
30
30
30
30
FC
FC
30
30
30
30
30
ENDCHAR

STARTCHAR C459=0x1cb
ENCODING 123
SWIDTH 461 0
DWIDTH 6 0
BBX 6 13 0 -3
BITMAP
00
00
00
00
30
30
FC
FC
30
30
00
00
00
ENDCHAR

STARTCHAR C460=0x1cc
ENCODING 124
SWIDTH 461 0
DWIDTH 6 0
BBX 6 13 0 -3
BITMAP
00
00
00
00
00
F0
88
80
80
80
80
00
00
ENDCHAR

STARTCHAR C461=0x1cd
ENCODING 125
SWIDTH 461 0
DWIDTH 6 0
BBX 6 13 0 -3
BITMAP
00
00
00
00
00
38
60
90
90
90
60
00
00
ENDCHAR

STARTCHAR C462=0x1ce
ENCODING 126
SWIDTH 461 0
DWIDTH 6 0
BBX 6 13 0 -3
BITMAP
00
00
00
00
00
78
A0
20
20
20
18
00
00
ENDCHAR

STARTCHAR C127=0x07f
ENCODING 127
SWIDTH 461 0
DWIDTH 6 0
BBX 6 13 0 -3
BITMAP
00
00
00
00
A8
50
A8
50
A8
00
00
00
00
ENDCHAR

STARTCHAR C256=0x100
ENCODING 128
SWIDTH 461 0
DWIDTH 6 0
BBX 6 13 0 -3
BITMAP
00
38
28
28
28
38
00
00
00
00
00
00
00
ENDCHAR

STARTCHAR C257=0x101
ENCODING 129
SWIDTH 461 0
DWIDTH 6 0
BBX 6 13 0 -3
BITMAP
00
08
08
08
08
08
00
00
00
00
00
00
00
ENDCHAR

STARTCHAR C258=0x102
ENCODING 130
SWIDTH 461 0
DWIDTH 6 0
BBX 6 13 0 -3
BITMAP
00
38
08
38
20
38
00
00
00
00
00
00
00
ENDCHAR

STARTCHAR C259=0x103
ENCODING 131
SWIDTH 461 0
DWIDTH 6 0
BBX 6 13 0 -3
BITMAP
00
38
08
38
08
38
00
00
00
00
00
00
00
ENDCHAR

STARTCHAR C260=0x104
ENCODING 132
SWIDTH 461 0
DWIDTH 6 0
BBX 6 13 0 -3
BITMAP
00
28
28
38
08
08
00
00
00
00
00
00
00
ENDCHAR

STARTCHAR C261=0x105
ENCODING 133
SWIDTH 461 0
DWIDTH 6 0
BBX 6 13 0 -3
BITMAP
00
38
20
38
08
38
00
00
00
00
00
00
00
ENDCHAR

STARTCHAR C262=0x106
ENCODING 134
SWIDTH 461 0
DWIDTH 6 0
BBX 6 13 0 -3
BITMAP
00
20
20
38
28
38
00
00
00
00
00
00
00
ENDCHAR

STARTCHAR C263=0x107
ENCODING 135
SWIDTH 461 0
DWIDTH 6 0
BBX 6 13 0 -3
BITMAP
00
38
08
08
08
08
00
00
00
00
00
00
00
ENDCHAR

STARTCHAR C264=0x108
ENCODING 136
SWIDTH 461 0
DWIDTH 6 0
BBX 6 13 0 -3
BITMAP
00
38
28
38
28
38
00
00
00
00
00
00
00
ENDCHAR

STARTCHAR C265=0x109
ENCODING 137
SWIDTH 461 0
DWIDTH 6 0
BBX 6 13 0 -3
BITMAP
00
38
28
38
08
08
00
00
00
00
00
00
00
ENDCHAR

STARTCHAR C266=0x10a
ENCODING 138
SWIDTH 461 0
DWIDTH 6 0
BBX 6 13 0 -3
BITMAP
00
00
78
00
00
00
00
00
00
00
00
00
00
ENDCHAR

STARTCHAR C267=0x10b
ENCODING 139
SWIDTH 461 0
DWIDTH 6 0
BBX 6 13 0 -3
BITMAP
00
10
10
7C
10
10
00
00
00
00
00
00
00
ENDCHAR

STARTCHAR C268=0x10c
ENCODING 140
SWIDTH 461 0
DWIDTH 6 0
BBX 6 13 0 -3
BITMAP
00
00
48
B0
00
48
B0
00
00
00
00
00
00
ENDCHAR

STARTCHAR C269=0x10d
ENCODING 141
SWIDTH 461 0
DWIDTH 6 0
BBX 6 13 0 -3
BITMAP
00
00
F8
80
40
20
10
20
40
80
F8
00
00
ENDCHAR

STARTCHAR C270=0x10e
ENCODING 142
SWIDTH 461 0
DWIDTH 6 0
BBX 6 13 0 -3
BITMAP
00
00
10
28
20
20
20
20
20
20
20
20
20
ENDCHAR

STARTCHAR C271=0x10f
ENCODING 143
SWIDTH 461 0
DWIDTH 6 0
BBX 6 13 0 -3
BITMAP
20
20
20
20
20
20
20
20
20
A0
40
00
00
ENDCHAR

STARTCHAR C272=0x110
ENCODING 144
SWIDTH 461 0
DWIDTH 6 0
BBX 6 13 0 -3
BITMAP
00
00
00
00
00
00
00
00
38
28
28
28
38
ENDCHAR

STARTCHAR C273=0x111
ENCODING 145
SWIDTH 461 0
DWIDTH 6 0
BBX 6 13 0 -3
BITMAP
00
00
00
00
00
00
00
00
08
08
08
08
08
ENDCHAR

STARTCHAR C274=0x112
ENCODING 146
SWIDTH 461 0
DWIDTH 6 0
BBX 6 13 0 -3
BITMAP
00
00
00
00
00
00
00
00
38
08
38
20
38
ENDCHAR

STARTCHAR C275=0x113
ENCODING 147
SWIDTH 461 0
DWIDTH 6 0
BBX 6 13 0 -3
BITMAP
00
00
00
00
00
00
00
00
38
08
38
08
38
ENDCHAR

STARTCHAR C276=0x114
ENCODING 148
SWIDTH 461 0
DWIDTH 6 0
BBX 6 13 0 -3
BITMAP
00
00
00
00
00
00
00
00
28
28
38
08
08
ENDCHAR

STARTCHAR C277=0x115
ENCODING 149
SWIDTH 461 0
DWIDTH 6 0
BBX 6 13 0 -3
BITMAP
00
00
00
00
00
00
00
00
38
20
38
08
38
ENDCHAR

STARTCHAR C278=0x116
ENCODING 150
SWIDTH 461 0
DWIDTH 6 0
BBX 6 13 0 -3
BITMAP
00
00
00
00
00
00
00
00
20
20
38
28
38
ENDCHAR

STARTCHAR C279=0x117
ENCODING 151
SWIDTH 461 0
DWIDTH 6 0
BBX 6 13 0 -3
BITMAP
00
00
00
00
00
00
00
00
38
08
08
08
08
ENDCHAR

STARTCHAR C280=0x118
ENCODING 152
SWIDTH 461 0
DWIDTH 6 0
BBX 6 13 0 -3
BITMAP
00
00
00
00
00
00
00
00
38
28
38
28
38
ENDCHAR

STARTCHAR C281=0x119
ENCODING 153
SWIDTH 461 0
DWIDTH 6 0
BBX 6 13 0 -3
BITMAP
00
00
00
00
00
00
00
00
38
28
38
08
08
ENDCHAR

STARTCHAR C282=0x11a
ENCODING 154
SWIDTH 461 0
DWIDTH 6 0
BBX 6 13 0 -3
BITMAP
00
00
00
00
00
00
00
00
00
00
78
00
00
ENDCHAR

STARTCHAR C283=0x11b
ENCODING 155
SWIDTH 461 0
DWIDTH 6 0
BBX 6 13 0 -3
BITMAP
00
00
00
00
00
00
00
00
10
10
7C
10
10
ENDCHAR

STARTCHAR C284=0x11c
ENCODING 156
SWIDTH 461 0
DWIDTH 6 0
BBX 6 13 0 -3
BITMAP
00
00
00
00
00
F8
A8
F8
00
00
00
00
00
ENDCHAR

STARTCHAR C285=0x11d
ENCODING 157
SWIDTH 461 0
DWIDTH 6 0
BBX 6 13 0 -3
BITMAP
00
00
00
00
00
48
A8
B0
A8
48
00
00
00
ENDCHAR

STARTCHAR C286=0x11e
ENCODING 158
SWIDTH 461 0
DWIDTH 6 0
BBX 6 13 0 -3
BITMAP
00
00
F8
20
50
88
88
88
70
20
F8
00
00
ENDCHAR

STARTCHAR C287=0x11f
ENCODING 159
SWIDTH 461 0
DWIDTH 6 0
BBX 6 13 0 -3
BITMAP
00
00
70
88
88
88
88
88
88
88
88
00
00
ENDCHAR

STARTCHAR C288=0x120
ENCODING 160
SWIDTH 461 0
DWIDTH 6 0
BBX 6 13 0 -3
BITMAP
00
00
00
00
00
00
00
00
00
00
00
00
00
ENDCHAR

STARTCHAR C289=0x121
ENCODING 161
SWIDTH 461 0
DWIDTH 6 0
BBX 6 13 0 -3
BITMAP
00
00
00
00
00
00
00
00
00
00
00
FC
FC
ENDCHAR

STARTCHAR C290=0x122
ENCODING 162
SWIDTH 461 0
DWIDTH 6 0
BBX 6 13 0 -3
BITMAP
00
00
00
00
00
00
00
00
00
FC
FC
FC
FC
ENDCHAR

STARTCHAR C291=0x123
ENCODING 163
SWIDTH 461 0
DWIDTH 6 0
BBX 6 13 0 -3
BITMAP
00
00
00
00
00
00
00
FC
FC
FC
FC
FC
FC
ENDCHAR

STARTCHAR C292=0x124
ENCODING 164
SWIDTH 461 0
DWIDTH 6 0
BBX 6 13 0 -3
BITMAP
00
00
00
00
00
FC
FC
FC
FC
FC
FC
FC
FC
ENDCHAR

STARTCHAR C293=0x125
ENCODING 165
SWIDTH 461 0
DWIDTH 6 0
BBX 6 13 0 -3
BITMAP
00
00
00
FC
FC
FC
FC
FC
FC
FC
FC
FC
FC
ENDCHAR

STARTCHAR C294=0x126
ENCODING 166
SWIDTH 461 0
DWIDTH 6 0
BBX 6 13 0 -3
BITMAP
00
FC
FC
FC
FC
FC
FC
FC
FC
FC
FC
FC
FC
ENDCHAR

STARTCHAR C295=0x127
ENCODING 167
SWIDTH 461 0
DWIDTH 6 0
BBX 6 13 0 -3
BITMAP
FC
FC
FC
FC
FC
FC
FC
FC
FC
FC
FC
FC
FC
ENDCHAR

STARTCHAR C296=0x128
ENCODING 168
SWIDTH 461 0
DWIDTH 6 0
BBX 6 13 0 -3
BITMAP
00
00
00
00
00
00
00
FC
FC
00
00
FC
FC
ENDCHAR

STARTCHAR C297=0x129
ENCODING 169
SWIDTH 461 0
DWIDTH 6 0
BBX 6 13 0 -3
BITMAP
00
00
00
00
00
FC
FC
FC
FC
00
00
FC
FC
ENDCHAR

STARTCHAR C298=0x12a
ENCODING 170
SWIDTH 461 0
DWIDTH 6 0
BBX 6 13 0 -3
BITMAP
00
00
00
FC
FC
FC
FC
FC
FC
00
00
FC
FC
ENDCHAR

STARTCHAR C299=0x12b
ENCODING 171
SWIDTH 461 0
DWIDTH 6 0
BBX 6 13 0 -3
BITMAP
00
FC
FC
FC
FC
FC
FC
FC
FC
00
00
FC
FC
ENDCHAR

STARTCHAR C300=0x12c
ENCODING 172
SWIDTH 461 0
DWIDTH 6 0
BBX 6 13 0 -3
BITMAP
FC
FC
FC
FC
FC
FC
FC
FC
FC
00
00
FC
FC
ENDCHAR

STARTCHAR C301=0x12d
ENCODING 173
SWIDTH 461 0
DWIDTH 6 0
BBX 6 13 0 -3
BITMAP
FC
FC
FC
FC
FC
FC
FC
FC
FC
00
00
FC
FC
ENDCHAR

STARTCHAR C302=0x12e
ENCODING 174
SWIDTH 461 0
DWIDTH 6 0
BBX 6 13 0 -3
BITMAP
00
00
00
00
00
00
FC
FC
00
00
00
FC
FC
ENDCHAR

STARTCHAR C303=0x12f
ENCODING 175
SWIDTH 461 0
DWIDTH 6 0
BBX 6 13 0 -3
BITMAP
00
00
00
00
00
FC
FC
00
00
00
00
FC
FC
ENDCHAR

STARTCHAR C304=0x130
ENCODING 176
SWIDTH 461 0
DWIDTH 6 0
BBX 6 13 0 -3
BITMAP
00
00
00
FC
FC
00
00
00
00
00
00
FC
FC
ENDCHAR

STARTCHAR C305=0x131
ENCODING 177
SWIDTH 461 0
DWIDTH 6 0
BBX 6 13 0 -3
BITMAP
00
FC
FC
00
00
00
00
00
00
00
00
FC
FC
ENDCHAR

STARTCHAR C306=0x132
ENCODING 178
SWIDTH 461 0
DWIDTH 6 0
BBX 6 13 0 -3
BITMAP
FC
FC
00
00
00
00
00
00
00
00
00
FC
FC
ENDCHAR

STARTCHAR C307=0x133
ENCODING 179
SWIDTH 461 0
DWIDTH 6 0
BBX 6 13 0 -3
BITMAP
00
00
00
00
00
FC
FC
00
00
FC
FC
FC
FC
ENDCHAR

STARTCHAR C308=0x134
ENCODING 180
SWIDTH 461 0
DWIDTH 6 0
BBX 6 13 0 -3
BITMAP
00
00
00
FC
FC
FC
FC
00
00
FC
FC
FC
FC
ENDCHAR

STARTCHAR C309=0x135
ENCODING 181
SWIDTH 461 0
DWIDTH 6 0
BBX 6 13 0 -3
BITMAP
00
FC
FC
FC
FC
FC
FC
00
00
FC
FC
FC
FC
ENDCHAR

STARTCHAR C310=0x136
ENCODING 182
SWIDTH 461 0
DWIDTH 6 0
BBX 6 13 0 -3
BITMAP
FC
FC
FC
FC
FC
FC
FC
00
00
FC
FC
FC
FC
ENDCHAR

STARTCHAR C311=0x137
ENCODING 183
SWIDTH 461 0
DWIDTH 6 0
BBX 6 13 0 -3
BITMAP
FC
FC
FC
FC
FC
FC
FC
00
00
FC
FC
FC
FC
ENDCHAR

STARTCHAR C312=0x138
ENCODING 184
SWIDTH 461 0
DWIDTH 6 0
BBX 6 13 0 -3
BITMAP
00
00
00
00
00
FC
FC
00
00
FC
FC
FC
FC
ENDCHAR

STARTCHAR C313=0x139
ENCODING 185
SWIDTH 461 0
DWIDTH 6 0
BBX 6 13 0 -3
BITMAP
00
00
00
FC
FC
00
00
00
00
FC
FC
FC
FC
ENDCHAR

STARTCHAR C314=0x13a
ENCODING 186
SWIDTH 461 0
DWIDTH 6 0
BBX 6 13 0 -3
BITMAP
00
FC
FC
00
00
00
00
00
00
FC
FC
FC
FC
ENDCHAR

STARTCHAR C315=0x13b
ENCODING 187
SWIDTH 461 0
DWIDTH 6 0
BBX 6 13 0 -3
BITMAP
FC
FC
00
00
00
00
00
00
00
FC
FC
FC
FC
ENDCHAR

STARTCHAR C316=0x13c
ENCODING 188
SWIDTH 461 0
DWIDTH 6 0
BBX 6 13 0 -3
BITMAP
00
00
00
FC
FC
00
00
FC
FC
FC
FC
FC
FC
ENDCHAR

STARTCHAR C317=0x13d
ENCODING 189
SWIDTH 461 0
DWIDTH 6 0
BBX 6 13 0 -3
BITMAP
00
FC
FC
FC
FC
00
00
FC
FC
FC
FC
FC
FC
ENDCHAR

STARTCHAR C318=0x13e
ENCODING 190
SWIDTH 461 0
DWIDTH 6 0
BBX 6 13 0 -3
BITMAP
FC
FC
FC
FC
FC
00
00
FC
FC
FC
FC
FC
FC
ENDCHAR

STARTCHAR C319=0x13f
ENCODING 191
SWIDTH 461 0
DWIDTH 6 0
BBX 6 13 0 -3
BITMAP
FC
FC
FC
FC
FC
00
00
FC
FC
FC
FC
FC
FC
ENDCHAR

STARTCHAR C320=0x140
ENCODING 192
SWIDTH 461 0
DWIDTH 6 0
BBX 6 13 0 -3
BITMAP
30
30
30
30
30
30
30
30
30
30
30
30
30
ENDCHAR

STARTCHAR C321=0x141
ENCODING 193
SWIDTH 461 0
DWIDTH 6 0
BBX 6 13 0 -3
BITMAP
00
00
00
00
00
00
FC
FC
00
00
00
00
00
ENDCHAR

STARTCHAR C322=0x142
ENCODING 194
SWIDTH 461 0
DWIDTH 6 0
BBX 6 13 0 -3
BITMAP
00
00
00
00
00
00
3C
3C
30
30
30
30
30
ENDCHAR

STARTCHAR C323=0x143
ENCODING 195
SWIDTH 461 0
DWIDTH 6 0
BBX 6 13 0 -3
BITMAP
00
00
00
00
00
00
F0
F0
30
30
30
30
30
ENDCHAR

STARTCHAR C324=0x144
ENCODING 196
SWIDTH 461 0
DWIDTH 6 0
BBX 6 13 0 -3
BITMAP
30
30
30
30
30
30
3C
3C
00
00
00
00
00
ENDCHAR

STARTCHAR C325=0x145
ENCODING 197
SWIDTH 461 0
DWIDTH 6 0
BBX 6 13 0 -3
BITMAP
30
30
30
30
30
30
F0
F0
00
00
00
00
00
ENDCHAR

STARTCHAR C326=0x146
ENCODING 198
SWIDTH 461 0
DWIDTH 6 0
BBX 6 13 0 -3
BITMAP
30
30
30
30
30
30
3C
3C
30
30
30
30
30
ENDCHAR

STARTCHAR C327=0x147
ENCODING 199
SWIDTH 461 0
DWIDTH 6 0
BBX 6 13 0 -3
BITMAP
30
30
30
30
30
30
F0
F0
30
30
30
30
30
ENDCHAR

STARTCHAR C328=0x148
ENCODING 200
SWIDTH 461 0
DWIDTH 6 0
BBX 6 13 0 -3
BITMAP
00
00
00
00
00
00
FC
FC
30
30
30
30
30
ENDCHAR

STARTCHAR C329=0x149
ENCODING 201
SWIDTH 461 0
DWIDTH 6 0
BBX 6 13 0 -3
BITMAP
30
30
30
30
30
30
FC
FC
00
00
00
00
00
ENDCHAR

STARTCHAR C330=0x14a
ENCODING 202
SWIDTH 461 0
DWIDTH 6 0
BBX 6 13 0 -3
BITMAP
30
30
30
30
30
30
FC
FC
30
30
30
30
30
ENDCHAR

STARTCHAR C331=0x14b
ENCODING 203
SWIDTH 461 0
DWIDTH 6 0
BBX 6 13 0 -3
BITMAP
C0
C0
C0
C0
C0
C0
C0
C0
C0
C0
C0
C0
C0
ENDCHAR

STARTCHAR C332=0x14c
ENCODING 204
SWIDTH 461 0
DWIDTH 6 0
BBX 6 13 0 -3
BITMAP
0C
0C
0C
0C
0C
0C
0C
0C
0C
0C
0C
0C
0C
ENDCHAR

STARTCHAR C333=0x14d
ENCODING 205
SWIDTH 461 0
DWIDTH 6 0
BBX 6 13 0 -3
BITMAP
CC
CC
CC
CC
CC
CC
CC
CC
CC
CC
CC
CC
CC
ENDCHAR

STARTCHAR C334=0x14e
ENCODING 206
SWIDTH 461 0
DWIDTH 6 0
BBX 6 13 0 -3
BITMAP
20
20
F8
50
70
20
F8
A8
20
70
50
50
D8
ENDCHAR

STARTCHAR C335=0x14f
ENCODING 207
SWIDTH 461 0
DWIDTH 6 0
BBX 6 13 0 -3
BITMAP
00
00
00
FC
FC
00
00
FC
FC
FC
FC
FC
FC
ENDCHAR

STARTCHAR C336=0x150
ENCODING 208
SWIDTH 461 0
DWIDTH 6 0
BBX 6 13 0 -3
BITMAP
00
FC
FC
00
00
00
00
FC
FC
FC
FC
FC
FC
ENDCHAR

STARTCHAR C337=0x151
ENCODING 209
SWIDTH 461 0
DWIDTH 6 0
BBX 6 13 0 -3
BITMAP
FC
FC
00
00
00
00
00
FC
FC
FC
FC
FC
FC
ENDCHAR

STARTCHAR C338=0x152
ENCODING 210
SWIDTH 461 0
DWIDTH 6 0
BBX 6 13 0 -3
BITMAP
00
FC
FC
00
00
FC
FC
FC
FC
FC
FC
FC
FC
ENDCHAR

STARTCHAR C339=0x153
ENCODING 211
SWIDTH 461 0
DWIDTH 6 0
BBX 6 13 0 -3
BITMAP
FC
FC
FC
00
00
FC
FC
FC
FC
FC
FC
FC
FC
ENDCHAR

STARTCHAR C340=0x154
ENCODING 212
SWIDTH 461 0
DWIDTH 6 0
BBX 6 13 0 -3
BITMAP
FC
FC
FC
00
00
FC
FC
FC
FC
FC
FC
FC
FC
ENDCHAR

STARTCHAR C341=0x155
ENCODING 213
SWIDTH 461 0
DWIDTH 6 0
BBX 6 13 0 -3
BITMAP
00
FC
FC
00
00
FC
FC
FC
FC
FC
FC
FC
FC
ENDCHAR

STARTCHAR C342=0x156
ENCODING 214
SWIDTH 461 0
DWIDTH 6 0
BBX 6 13 0 -3
BITMAP
FC
FC
00
00
00
FC
FC
FC
FC
FC
FC
FC
FC
ENDCHAR

STARTCHAR C343=0x157
ENCODING 215
SWIDTH 461 0
DWIDTH 6 0
BBX 6 13 0 -3
BITMAP
00
FC
FC
00
FC
FC
FC
FC
FC
FC
FC
FC
FC
ENDCHAR

STARTCHAR C344=0x158
ENCODING 216
SWIDTH 461 0
DWIDTH 6 0
BBX 6 13 0 -3
BITMAP
FC
FC
00
00
FC
FC
FC
FC
FC
FC
FC
FC
FC
ENDCHAR

STARTCHAR C345=0x159
ENCODING 217
SWIDTH 461 0
DWIDTH 6 0
BBX 6 13 0 -3
BITMAP
FC
FC
00
00
FC
FC
FC
FC
FC
FC
FC
FC
FC
ENDCHAR

STARTCHAR C346=0x15a
ENCODING 218
SWIDTH 461 0
DWIDTH 6 0
BBX 6 13 0 -3
BITMAP
FC
00
00
FC
FC
FC
FC
FC
FC
FC
FC
FC
FC
ENDCHAR

STARTCHAR C347=0x15b
ENCODING 219
SWIDTH 461 0
DWIDTH 6 0
BBX 6 13 0 -3
BITMAP
00
00
00
00
00
00
00
00
00
FC
FC
00
00
ENDCHAR

STARTCHAR C348=0x15c
ENCODING 220
SWIDTH 461 0
DWIDTH 6 0
BBX 6 13 0 -3
BITMAP
00
00
00
00
00
00
00
FC
FC
FC
FC
00
00
ENDCHAR

STARTCHAR C349=0x15d
ENCODING 221
SWIDTH 461 0
DWIDTH 6 0
BBX 6 13 0 -3
BITMAP
00
FC
FC
00
00
FC
FC
00
00
FC
FC
00
00
ENDCHAR

STARTCHAR C350=0x15e
ENCODING 222
SWIDTH 461 0
DWIDTH 6 0
BBX 6 13 0 -3
BITMAP
FC
00
00
FC
FC
00
00
FC
FC
00
00
FC
FC
ENDCHAR

STARTCHAR C351=0x15f
ENCODING 223
SWIDTH 461 0
DWIDTH 6 0
BBX 6 13 0 -3
BITMAP
FC
FC
FC
FC
FC
FC
FC
FC
FC
FC
FC
FC
FC
ENDCHAR

STARTCHAR C352=0x160
ENCODING 224
SWIDTH 461 0
DWIDTH 6 0
BBX 6 13 0 -3
BITMAP
30
30
30
30
30
30
30
30
30
30
30
30
30
ENDCHAR

STARTCHAR C353=0x161
ENCODING 225
SWIDTH 461 0
DWIDTH 6 0
BBX 6 13 0 -3
BITMAP
00
00
00
00
00
00
FC
FC
00
00
00
00
00
ENDCHAR

STARTCHAR C354=0x162
ENCODING 226
SWIDTH 461 0
DWIDTH 6 0
BBX 6 13 0 -3
BITMAP
00
00
00
00
00
00
3C
3C
30
30
30
30
30
ENDCHAR

STARTCHAR C355=0x163
ENCODING 227
SWIDTH 461 0
DWIDTH 6 0
BBX 6 13 0 -3
BITMAP
00
00
00
00
00
00
F0
F0
30
30
30
30
30
ENDCHAR

STARTCHAR C356=0x164
ENCODING 228
SWIDTH 461 0
DWIDTH 6 0
BBX 6 13 0 -3
BITMAP
30
30
30
30
30
30
3C
3C
00
00
00
00
00
ENDCHAR

STARTCHAR C357=0x165
ENCODING 229
SWIDTH 461 0
DWIDTH 6 0
BBX 6 13 0 -3
BITMAP
30
30
30
30
30
30
F0
F0
00
00
00
00
00
ENDCHAR

STARTCHAR C358=0x166
ENCODING 230
SWIDTH 461 0
DWIDTH 6 0
BBX 6 13 0 -3
BITMAP
30
30
30
30
30
30
3C
3C
30
30
30
30
30
ENDCHAR

STARTCHAR C359=0x167
ENCODING 231
SWIDTH 461 0
DWIDTH 6 0
BBX 6 13 0 -3
BITMAP
30
30
30
30
30
30
F0
F0
30
30
30
30
30
ENDCHAR

STARTCHAR C360=0x168
ENCODING 232
SWIDTH 461 0
DWIDTH 6 0
BBX 6 13 0 -3
BITMAP
00
00
00
00
00
00
FC
FC
30
30
30
30
30
ENDCHAR

STARTCHAR C361=0x169
ENCODING 233
SWIDTH 461 0
DWIDTH 6 0
BBX 6 13 0 -3
BITMAP
30
30
30
30
30
30
FC
FC
00
00
00
00
00
ENDCHAR

STARTCHAR C362=0x16a
ENCODING 234
SWIDTH 461 0
DWIDTH 6 0
BBX 6 13 0 -3
BITMAP
30
30
30
30
30
30
FC
FC
30
30
30
30
30
ENDCHAR

STARTCHAR C363=0x16b
ENCODING 235
SWIDTH 461 0
DWIDTH 6 0
BBX 6 13 0 -3
BITMAP
C0
C0
C0
C0
C0
C0
FC
FC
00
00
00
00
00
ENDCHAR

STARTCHAR C364=0x16c
ENCODING 236
SWIDTH 461 0
DWIDTH 6 0
BBX 6 13 0 -3
BITMAP
0C
0C
0C
0C
0C
0C
FC
FC
00
00
00
00
00
ENDCHAR

STARTCHAR C365=0x16d
ENCODING 237
SWIDTH 461 0
DWIDTH 6 0
BBX 6 13 0 -3
BITMAP
00
00
00
CC
CC
00
00
CC
CC
00
00
CC
CC
ENDCHAR

STARTCHAR C366=0x16e
ENCODING 238
SWIDTH 461 0
DWIDTH 6 0
BBX 6 13 0 -3
BITMAP
A8
54
A8
54
A8
54
A8
54
A8
54
A8
54
A8
ENDCHAR

STARTCHAR C367=0x16f
ENCODING 239
SWIDTH 461 0
DWIDTH 6 0
BBX 6 13 0 -3
BITMAP
00
00
00
00
00
00
00
FC
FC
FC
FC
00
00
ENDCHAR

STARTCHAR C368=0x170
ENCODING 240
SWIDTH 461 0
DWIDTH 6 0
BBX 6 13 0 -3
BITMAP
00
00
00
00
00
FC
FC
FC
FC
FC
FC
00
00
ENDCHAR

STARTCHAR C369=0x171
ENCODING 241
SWIDTH 461 0
DWIDTH 6 0
BBX 6 13 0 -3
BITMAP
00
00
00
FC
FC
FC
FC
FC
FC
FC
FC
00
00
ENDCHAR

STARTCHAR C370=0x172
ENCODING 242
SWIDTH 461 0
DWIDTH 6 0
BBX 6 13 0 -3
BITMAP
00
FC
FC
FC
FC
FC
FC
FC
FC
FC
FC
00
00
ENDCHAR

STARTCHAR C371=0x173
ENCODING 243
SWIDTH 461 0
DWIDTH 6 0
BBX 6 13 0 -3
BITMAP
FC
FC
FC
FC
FC
FC
FC
FC
FC
FC
FC
00
00
ENDCHAR

STARTCHAR C372=0x174
ENCODING 244
SWIDTH 461 0
DWIDTH 6 0
BBX 6 13 0 -3
BITMAP
00
00
00
00
00
00
00
FC
FC
00
00
00
00
ENDCHAR

STARTCHAR C373=0x175
ENCODING 245
SWIDTH 461 0
DWIDTH 6 0
BBX 6 13 0 -3
BITMAP
FC
FC
FC
FC
FC
FC
FC
FC
FC
00
00
00
00
ENDCHAR

STARTCHAR C374=0x176
ENCODING 246
SWIDTH 461 0
DWIDTH 6 0
BBX 6 13 0 -3
BITMAP
00
00
00
00
00
FC
FC
00
00
00
00
00
00
ENDCHAR

STARTCHAR C375=0x177
ENCODING 247
SWIDTH 461 0
DWIDTH 6 0
BBX 6 13 0 -3
BITMAP
FC
FC
FC
FC
FC
FC
FC
00
00
00
00
00
00
ENDCHAR

STARTCHAR C376=0x178
ENCODING 248
SWIDTH 461 0
DWIDTH 6 0
BBX 6 13 0 -3
BITMAP
00
00
00
FC
FC
00
00
00
00
00
00
00
00
ENDCHAR

STARTCHAR C377=0x179
ENCODING 249
SWIDTH 461 0
DWIDTH 6 0
BBX 6 13 0 -3
BITMAP
FC
FC
FC
FC
FC
00
00
00
00
00
00
00
00
ENDCHAR

STARTCHAR C378=0x17a
ENCODING 250
SWIDTH 461 0
DWIDTH 6 0
BBX 6 13 0 -3
BITMAP
00
FC
FC
00
00
00
00
00
00
00
00
00
00
ENDCHAR

STARTCHAR C379=0x17b
ENCODING 251
SWIDTH 461 0
DWIDTH 6 0
BBX 6 13 0 -3
BITMAP
FC
FC
FC
00
00
00
00
00
00
00
00
00
00
ENDCHAR

STARTCHAR C380=0x17c
ENCODING 252
SWIDTH 461 0
DWIDTH 6 0
BBX 6 13 0 -3
BITMAP
00
FC
FC
00
00
00
00
00
00
00
00
00
00
ENDCHAR

STARTCHAR C381=0x17d
ENCODING 253
SWIDTH 461 0
DWIDTH 6 0
BBX 6 13 0 -3
BITMAP
FC
FC
FC
00
00
00
00
00
00
00
00
00
00
ENDCHAR

STARTCHAR C382=0x17e
ENCODING 254
SWIDTH 461 0
DWIDTH 6 0
BBX 6 13 0 -3
BITMAP
FC
FC
00
00
00
00
00
00
00
00
00
00
00
ENDCHAR

STARTCHAR C127=0x07f
ENCODING 255
SWIDTH 461 0
DWIDTH 6 0
BBX 6 13 0 -3
BITMAP
00
00
00
00
A8
50
A8
50
A8
00
00
00
00
ENDCHAR
ENDFONT
